<?xml version="1.0" standalone="no"?><svg xmlns="http://www.w3.org/2000/svg" viewBox="0 0 1440 320"><path fill="#5000ca" fill-opacity="1" d="M0,128L30,117.3C60,107,120,85,180,112C240,139,300,213,360,229.3C420,245,480,203,540,197.3C600,192,660,224,720,208C780,192,840,128,900,90.7C960,53,1020,43,1080,42.7C1140,43,1200,53,1260,96C1320,139,1380,213,1410,250.7L1440,288L1440,320L1410,320C1380,320,1320,320,1260,320C1200,320,1140,320,1080,320C1020,320,960,320,900,320C840,320,780,320,720,320C660,320,600,320,540,320C480,320,420,320,360,320C300,320,240,320,180,320C120,320,60,320,30,320L0,320Z"></path></svg>