<?xml version="1.0" standalone="no"?><svg xmlns="http://www.w3.org/2000/svg" viewBox="0 0 1440 320"><path fill="#5000ca" fill-opacity="1" d="M0,192L26.7,176C53.3,160,107,128,160,128C213.3,128,267,160,320,154.7C373.3,149,427,107,480,122.7C533.3,139,587,213,640,229.3C693.3,245,747,203,800,154.7C853.3,107,907,53,960,32C1013.3,11,1067,21,1120,53.3C1173.3,85,1227,139,1280,160C1333.3,181,1387,171,1413,165.3L1440,160L1440,320L1413.3,320C1386.7,320,1333,320,1280,320C1226.7,320,1173,320,1120,320C1066.7,320,1013,320,960,320C906.7,320,853,320,800,320C746.7,320,693,320,640,320C586.7,320,533,320,480,320C426.7,320,373,320,320,320C266.7,320,213,320,160,320C106.7,320,53,320,27,320L0,320Z"></path></svg>